<svg id="Layer_1" data-name="Layer 1" xmlns="http://www.w3.org/2000/svg" width="1024" height="512" viewBox="0 0 1024 512">
  <defs>
    <style>
      .cls-1 {
        fill: #f79e00;
      }

      .cls-2 {
        fill: #f4bb60;
      }

      .cls-3 {
        fill: #f47f00;
        opacity: 0.5;
      }
    </style>
  </defs>
  <g>
    <path class="cls-1" d="M197.1,316.71a63.14,63.14,0,0,0-21-4.09c-29.16,0-44.69,26.71-44.69,47.15,0,6,1.36,11.44,4.08,15.53,4.64,7.08,10.63,12.81,21.81,12.81,8.44,0,20.16-3.27,36.51-12l10.08,33.24c-20.71,10.36-38.42,14.72-53.13,14.72-37.34,0-55.87-28.07-55.87-60.23,0-35.42,28.07-86.65,76-86.65A77.44,77.44,0,0,1,199,282.65Z"/>
    <path class="cls-1" d="M220,289.73h.55c27.79-9.26,50.41-13.62,67.85-13.62,28.61,0,43.33,11.71,43.87,32.7.82,22.61-13.08,46.05-41.42,63.49,13.36,6.54,28.07,12,39,14.44-4.9,10.09-11.17,22.89-16.35,33-16.35-5.45-44.14-18-62.4-29.71.27,9.54.54,19.08,1.36,28.89-12.26.54-23.71,3-36,3.54-.27-11.44-.55-22.62-.55-34.06,0-33,1.37-66.22,4.09-98.38Zm75.49,32.43c4.36-7.9-1.91-10.63-10.9-10.63-10.09,0-24,3.27-31.89,5.18-.82,12.26-1.36,24.8-1.91,37.33C268.22,350.23,290.3,332,295.48,322.16Z"/>
    <path class="cls-1" d="M402.57,277.2h.54c15.27,44.69,31.34,89.65,51.78,131.07-11.17,3.54-23.16,8.18-34.61,12-1.9-3.54-3.54-7.36-5.18-11.17l-39.78,9c-.82,2.73-1.64,5.45-2.45,7.9-12.54,1.37-26.71,2.46-39.24,3.82C338,397.64,380.22,305.54,402.57,277.2Zm1.63,104.37c-2.72-8.45-5.45-17.17-7.63-26.16-4.63,9-8.44,19.89-12.26,31.33Z"/>
    <path class="cls-1" d="M455.43,359.49c0-27.25,2.46-51.5,4.36-75.75C479.14,281,502.85,277.47,520,278c36.52.28,48.78,11.72,48.78,24.26,0,12.8-12.81,26.43-26.44,30.52,25.89,2.18,36.25,15.26,35.7,28.07-1.63,42.78-65.94,59.95-117.72,65.4A464.72,464.72,0,0,1,455.43,359.49Zm36.25,26.71c31.34-4.63,45-13.63,45-20.17,0-4.63-6.54-8.17-18.53-8.17-7.36,0-16.62,1.36-27.25,4.36C490.86,370.12,491.13,378,491.68,386.2Zm.82-59.14c25.07-4.9,36.51-12,36.51-16.62,0-2.72-3.81-4.63-11.44-4.63-5.73,0-13.9,1.09-23.71,3.81C493.31,314.26,492.5,322.16,492.5,327.06Z"/>
    <path class="cls-1" d="M748.11,276.11l.81,34.06c-13.62,1.36-25.34,2.72-39,7.36-1.1,5.72-1.37,13.62-1.64,22.89,10.9-2.18,22.35-3.82,32.7-4.91.27,10.09.55,22.89.55,33A243.26,243.26,0,0,0,709.14,375c.82,16.07,2.18,31.61,3.27,42l-34.61,9.54c-3.27-18.53-4.36-39-4.36-60.5,0-25.88,1.63-53.14,3.81-78.75C699.33,280.19,727.12,276.11,748.11,276.11Z"/>
    <path class="cls-1" d="M763.36,315.89c0-11.17.28-22.34.55-33.52,12.53-2.18,24-2.18,36.24-4.08-1.36,16.89-1.91,33.79-1.91,50.41,0,29.43,1.91,58.86,4.64,87.47-11.72,2.18-23.71,3.55-35.16,5.73C765,387.56,763.36,351.86,763.36,315.89Z"/>
    <path class="cls-1" d="M814.59,325.43c-.27-11.72-1.63-24-1.63-36.24a478.75,478.75,0,0,1,83.66-13.08v34.6c-7.9.55-16.08,1.09-24,2.18-1.36,19.08-2.18,37.88-2.18,57,0,16.35.54,32.7,1.91,48.78-12.27.81-23.71,3-36,3.81-.27-11.72-.54-23.43-.54-35.42,0-22.62.54-45.51,1.91-68.13C830.13,320.8,822.22,323,814.59,325.43Z"/>
  </g>
  <g>
    <path class="cls-2" d="M164.83,164.11a40.8,40.8,0,0,0-13.58-2.65c-18.88,0-28.94,17.29-28.94,30.53A18.09,18.09,0,0,0,125,202c3,4.59,6.88,8.3,14.11,8.3,5.47,0,13.06-2.12,23.65-7.77l6.52,21.53c-13.41,6.7-24.87,9.53-34.4,9.53-24.17,0-36.17-18.18-36.17-39,0-22.93,18.17-56.1,49.23-56.1a50.18,50.18,0,0,1,18.17,3.52Z"/>
    <path class="cls-2" d="M224.29,138.17c14.82,0,27.53,4.94,28.06,21.35.53,15-9,29.11-28.59,39.35,8.83,6.17,19.06,11.64,26.82,14.46-4.06,6.18-9.17,13.94-13.23,19.94-10.06-4.94-27-15.35-37.76-24.35q.27,10.86,1.06,21.71c-7.94.52-15.35,1.94-23.29,2.47-.18-7.41-.35-14.65-.35-22.06,0-21.52.88-43.23,2.64-63.87C187.06,144.7,207.18,138.17,224.29,138.17Zm4.24,30c2.82-5.3-1.06-6.88-6.88-6.88-6.53,0-15.71,1.94-20.82,3.17q-.79,10.32-1.06,20.64C211.06,183.16,225.18,174.52,228.53,168.17Z"/>
    <path class="cls-2" d="M309.69,140.82l.53,21.52c-9.88.36-15.17.89-25.05,3.53-.53,3.71-1.06,7.24-1.24,10.77a159.38,159.38,0,0,1,26.82-3.71c.35,6.53,1.23,15.17,1.59,21.7a139.35,139.35,0,0,0-27.7,5.3c.17,2.29.53,4.76.88,7.41,10.58-2.65,17.47-2.83,28.58-3.89l1.24,22.41c-18.18,1.06-33.88,5.29-51.88,10.59-2.29-11.82-3.17-25.23-3.17-38.82,0-16.94,1.41-34.58,2.82-51.34A173,173,0,0,1,309.69,140.82Z"/>
    <path class="cls-2" d="M358,138.7h.36c9.88,28.94,21.87,60.17,35.28,86.81-7.41,2.47-15.17,5.47-22.4,7.94-1.94-3.88-3.89-7.76-5.65-11.82l-24.53,5.47q-.78,2.91-1.58,5.82c-8.12.71-17.47,1.59-25.41,2.47C316.92,214.39,343.57,157.05,358,138.7Zm.53,65.11c-1.76-4.77-3.17-9.53-4.41-14.29a109.48,109.48,0,0,0-6.88,17.29Z"/>
    <path class="cls-2" d="M384.5,170.28c-.18-7.76-1.06-15.7-1.06-23.46a365.8,365.8,0,0,1,58.93-8.65v22.59c-6.35.17-12.53.7-18.7,1.41-.88,12.35-1.41,24.52-1.41,36.87,0,10.59.35,21.18,1.23,31.59-7.94.35-15.52,1.94-23.46,2.47-.18-7.06-.36-14.12-.36-21.18,0-15.35.53-30.7,1.24-45.87Q392.71,167.9,384.5,170.28Z"/>
    <path class="cls-2" d="M498.83,140.82l.53,21.52c-9.88.36-15.17.89-25.05,3.53-.53,3.71-1.06,7.24-1.24,10.77a159.38,159.38,0,0,1,26.82-3.71c.35,6.53,1.24,15.17,1.59,21.7a139.35,139.35,0,0,0-27.7,5.3c.17,2.29.53,4.76.88,7.41,10.59-2.65,17.47-2.83,28.58-3.89l1.24,22.41c-18.18,1.06-33.88,5.29-51.87,10.59-2.3-11.82-3.18-25.23-3.18-38.82,0-16.94,1.41-34.58,2.82-51.34A173,173,0,0,1,498.83,140.82Z"/>
    <path class="cls-2" d="M599.93,138.7h.35c9.88,28.94,21.88,60.17,35.29,86.81-7.41,2.47-15.17,5.47-22.41,7.94-1.94-3.88-3.88-7.76-5.64-11.82L583,227.1l-1.59,5.82c-8.11.71-17.46,1.59-25.4,2.47C558.82,214.39,585.46,157.05,599.93,138.7Zm.53,65.11a148.15,148.15,0,0,1-4.41-14.29,109.48,109.48,0,0,0-6.88,17.29Z"/>
  </g>
  <g>
    <path class="cls-2" d="M768,169.48a75.57,75.57,0,0,1-46.19-96.37h0a75.57,75.57,0,0,1,96.38-46.19L855.4,40,829,52.72l18.81,6.62c-16.21,46-69.41-3.29-89.4,1.57C734.12,66.81,768,169.48,768,169.48Z"/>
    <g>
      <rect class="cls-1" x="832.9" y="123.63" width="12.83" height="35.28" rx="6.42" transform="translate(94.54 -270.7) rotate(19.39)"/>
      <rect class="cls-1" x="808.7" y="115.11" width="12.83" height="35.28" rx="6.42" transform="translate(90.34 -263.14) rotate(19.39)"/>
    </g>
    <g>
      <rect class="cls-2" x="666.34" y="155.3" width="65.76" height="14.43" rx="7.22" transform="translate(93.64 -222.97) rotate(19.39)"/>
      <rect class="cls-2" x="678.33" y="135.71" width="65.76" height="14.43" rx="7.22" transform="translate(222.82 -393.47) rotate(36.32)"/>
      <rect class="cls-2" x="661.9" y="177.54" width="65.76" height="14.43" rx="7.22" transform="translate(5.39 -19.2) rotate(1.59)"/>
      <rect class="cls-2" x="666.86" y="199.69" width="65.76" height="14.43" rx="7.22" transform="translate(-29.89 197.88) rotate(-15.76)"/>
    </g>
    <g>
      <rect class="cls-2" x="876.62" y="229.33" width="65.76" height="14.43" rx="7.22" transform="translate(1688.84 761.68) rotate(-160.61)"/>
      <rect class="cls-2" x="879.54" y="206.55" width="65.76" height="14.43" rx="7.22" transform="translate(1814.77 466.65) rotate(-177.53)"/>
      <rect class="cls-2" x="866.14" y="249.44" width="65.76" height="14.43" rx="7.22" transform="translate(1459.94 1004.63) rotate(-142.8)"/>
      <rect class="cls-2" x="848.4" y="263.6" width="65.76" height="14.43" rx="7.22" transform="translate(1171.77 1145.81) rotate(-125.45)"/>
    </g>
    <path class="cls-1" d="M829,52.72l6.89-19.57-17.7-6.23a75.57,75.57,0,0,0-96.38,46.19h0C744.48,33.92,770.6,32.18,829,52.72Z"/>
    <path class="cls-2" d="M853.45,199.58a75.56,75.56,0,0,0,96.37-46.19h0A75.57,75.57,0,0,0,903.64,57L866.37,43.9l12.68,26.46-18.81-6.63c-16.21,46,56.16,40.92,68.7,57.23C944.14,140.75,853.45,199.58,853.45,199.58Z"/>
    <path class="cls-1" d="M879.05,70.36l6.89-19.57L903.64,57a75.57,75.57,0,0,1,46.18,96.37h0C956.66,108.62,937.39,90.9,879.05,70.36Z"/>
    <rect class="cls-1" x="698.46" y="133.23" width="213.31" height="133.12" rx="66.56" transform="translate(112.03 -256.02) rotate(19.39)"/>
    <circle class="cls-3" cx="783.18" cy="192.07" r="42.5"/>
    <circle class="cls-3" cx="827.05" cy="207.52" r="42.5"/>
  </g>
</svg>
