<svg xmlns="http://www.w3.org/2000/svg" viewBox="0 0 512 512">
  <defs>
    <style>.cls-1,.cls-4{fill:#f79e00;}.cls-2,.cls-4{isolation:isolate;}.cls-3{fill:#f48600;}</style>
  </defs>
  <path class="cls-1" d="M181.11,311a123,123,0,0,1-123-123h0a123,123,0,0,1,123-123h64.32L211.66,98.73h32.46c0,79.47-108.36,32.47-136.43,50.75C73.65,171.64,181.11,311,181.11,311Z"/>
  <path class="cls-1" d="M404,149.48C375.94,131.2,267.58,178.2,267.58,98.73H300L266.27,65h64.32a123,123,0,0,1,123,123h0a123,123,0,0,1-123,123S438.05,171.64,404,149.48Z"/>
  <rect class="cls-1" x="266.27" y="200.39" width="20.89" height="57.44" rx="10.44"/>
  <rect class="cls-1" x="224.49" y="200.39" width="20.89" height="57.44" rx="10.44"/>
  <path class="cls-1" d="M190.55,229.11H321.11A108.35,108.35,0,0,1,429.47,337.47h0A108.36,108.36,0,0,1,321.11,445.83H190.55A108.37,108.37,0,0,1,82.19,337.47h0A108.36,108.36,0,0,1,190.55,229.11Z"/>
  <g class="cls-2">
    <path class="cls-3" d="M293.69,268.29a68.83,68.83,0,0,0-37.86,11.29,69.19,69.19,0,1,0,0,115.8,69.19,69.19,0,1,0,37.86-127.09Z"/>
  </g>
  <ellipse class="cls-4" cx="255.83" cy="337.48" rx="31.32" ry="57.9"/>
  <path class="cls-1" d="M402.77,386.23c36,12.31,66,40.07,59.44,60.75C440,431.17,413.11,416.91,389,409.83Z"/>
  <path class="cls-1" d="M420.05,345.89c37.37,7.15,71,30.45,67.35,51.85-24.24-12.55-52.82-22.92-77.67-26.57Z"/>
  <path class="cls-1" d="M417.26,303.44c38.05.39,75.26,17.34,75.5,39-26.08-8-56.05-13.16-81.15-12.32Z"/>
  <path class="cls-1" d="M109.23,386.23c-36,12.31-66,40.07-59.44,60.75C72,431.17,98.89,416.91,123,409.83Z"/>
  <path class="cls-1" d="M92,345.89C54.58,353,21,376.34,24.6,397.74c24.24-12.55,52.82-22.92,77.67-26.57Z"/>
  <path class="cls-1" d="M94.74,303.44c-38,.39-75.26,17.34-75.5,39,26.08-8,56.05-13.16,81.15-12.32Z"/>
</svg>
